<svg width="180" height="180" viewBox="0 0 180 180" fill="none" xmlns="http://www.w3.org/2000/svg">
<path d="M35.956 179.98C27.7169 179.98 19.6878 177.15 13.1785 171.811C4.80947 164.951 0 154.802 0 143.973C0 127.494 11.7287 113.185 27.8869 109.956L53.994 104.736V46.3806C53.994 29.5919 65.9427 15.0131 82.4109 11.7233L137.565 0.694186C148.034 -1.39565 158.762 1.28414 167.011 8.0436C175.261 14.8131 180 24.8123 180 35.4814C180 52.3301 168.011 66.9589 151.483 70.2687L126.006 75.3683V79.7279C126.006 96.5166 114.057 111.095 97.5892 114.385L72.012 119.505V143.993C72.012 161.091 59.8434 175.94 43.0752 179.29C40.7055 179.76 38.3257 180 35.966 180L35.956 179.98ZM54.004 123.084L31.4265 127.604C23.6474 129.164 18.008 136.043 18.008 143.973C18.008 149.382 20.4077 154.462 24.5973 157.892C28.7868 161.321 34.2262 162.681 39.5356 161.621C47.9147 159.942 54.004 152.522 54.004 143.973V123.084ZM144.534 18.0028C143.384 18.0028 142.244 18.1028 141.094 18.3328L85.9505 29.3619C77.8714 30.9818 72.002 38.1312 72.002 46.3706V101.126L94.0496 96.7166C102.129 95.0967 107.998 87.9473 107.998 79.7079V60.5994L147.944 52.6101C156.083 50.9802 161.992 43.7708 161.992 35.4714C161.992 30.2118 159.662 25.2922 155.593 21.9625C152.433 19.3727 148.533 18.0028 144.534 18.0028Z" fill="url(#paint0_linear_107_2765)"/>
<path d="M35.956 179.98C27.7169 179.98 19.6878 177.15 13.1785 171.811C4.80947 164.951 0 154.802 0 143.973C0 127.494 11.7287 113.185 27.8869 109.956L53.994 104.736V46.3806C53.994 29.5919 65.9427 15.0131 82.4109 11.7233L137.565 0.694186C148.034 -1.39565 158.762 1.28414 167.011 8.0436C175.261 14.8131 180 24.8123 180 35.4814C180 52.3301 168.011 66.9589 151.483 70.2687L126.006 75.3683V79.7279C126.006 96.5166 114.057 111.095 97.5892 114.385L72.012 119.505V143.993C72.012 161.091 59.8434 175.94 43.0752 179.29C40.7055 179.76 38.3257 180 35.966 180L35.956 179.98ZM54.004 123.084L31.4265 127.604C23.6474 129.164 18.008 136.043 18.008 143.973C18.008 149.382 20.4077 154.462 24.5973 157.892C28.7868 161.321 34.2262 162.681 39.5356 161.621C47.9147 159.942 54.004 152.522 54.004 143.973V123.084ZM144.534 18.0028C143.384 18.0028 142.244 18.1028 141.094 18.3328L85.9505 29.3619C77.8714 30.9818 72.002 38.1312 72.002 46.3706V101.126L94.0496 96.7166C102.129 95.0967 107.998 87.9473 107.998 79.7079V60.5994L147.944 52.6101C156.083 50.9802 161.992 43.7708 161.992 35.4714C161.992 30.2118 159.662 25.2922 155.593 21.9625C152.433 19.3727 148.533 18.0028 144.534 18.0028Z" fill="url(#paint1_linear_107_2765)" fill-opacity="0.32" style="mix-blend-mode:soft-light"/>
<g style="mix-blend-mode:color-burn">
<path d="M0 143.973C0 154.802 4.80947 164.951 13.1785 171.811L24.5973 157.892C20.4077 154.462 18.008 149.382 18.008 143.973C18.008 136.043 23.6474 129.164 31.4265 127.604L54.004 123.085L53.994 104.736L27.8869 109.956C11.7287 113.185 0 127.494 0 143.973Z" fill="url(#paint2_linear_107_2765)" fill-opacity="0.4"/>
</g>
<g style="mix-blend-mode:color-burn">
<path d="M126.006 79.728V75.3683L107.998 60.5995V79.708C107.998 87.9473 102.129 95.0968 94.0496 96.7166L72.002 101.126L72.012 119.505L97.5892 114.385C114.057 111.095 126.006 96.5166 126.006 79.728Z" fill="url(#paint3_linear_107_2765)" fill-opacity="0.4"/>
</g>
<defs>
<linearGradient id="paint0_linear_107_2765" x1="180" y1="0" x2="49.5" y2="240" gradientUnits="userSpaceOnUse">
<stop stop-color="#9969FF"/>
<stop offset="0.5" stop-color="#6892FF"/>
<stop offset="1" stop-color="#9FDDFF"/>
</linearGradient>
<linearGradient id="paint1_linear_107_2765" x1="90" y1="0" x2="90" y2="180" gradientUnits="userSpaceOnUse">
<stop offset="0.377241" stop-color="white" stop-opacity="0"/>
<stop offset="1" stop-color="white"/>
</linearGradient>
<linearGradient id="paint2_linear_107_2765" x1="54.33" y1="114.073" x2="18.6517" y2="121.289" gradientUnits="userSpaceOnUse">
<stop stop-color="#1C004E"/>
<stop offset="1" stop-color="#6732C5" stop-opacity="0"/>
</linearGradient>
<linearGradient id="paint3_linear_107_2765" x1="70.4998" y1="111.017" x2="107.854" y2="87.3954" gradientUnits="userSpaceOnUse">
<stop stop-color="#1C004E"/>
<stop offset="1" stop-color="#6732C5" stop-opacity="0"/>
</linearGradient>
</defs>
</svg>
